<?xml version="1.0" standalone="no"?><!DOCTYPE svg PUBLIC "-//W3C//DTD SVG 1.1//EN" "http://www.w3.org/Graphics/SVG/1.1/DTD/svg11.dtd"><svg t="1752931486753" class="icon" viewBox="0 0 1024 1024" version="1.1" xmlns="http://www.w3.org/2000/svg" p-id="16806" xmlns:xlink="http://www.w3.org/1999/xlink" width="200" height="200"><path d="M433.152 311.97866667c-8.76088889 0-17.52177778-1.93422222-25.82755555-6.144-28.672-14.336-40.39111111-49.152-26.05511112-77.93777778l94.09422222-188.87111111c14.336-28.672 49.152-40.39111111 77.93777778-26.05511111 28.672 14.336 40.39111111 49.152 26.05511112 77.93777778l-94.09422223 188.8711111c-10.24 20.36622222-30.72 32.19911111-52.11022222 32.19911112zM259.29955555 327.68c-24.23466667 0-46.87644445-15.36-55.06844444-39.70844445l-32.19911111-96.14222222c-10.12622222-30.37866667 6.25777778-63.37422222 36.63644445-73.50044444 30.26488889-10.12622222 63.26044445 6.25777778 73.50044444 36.63644444l32.19911111 96.14222222c10.12622222 30.37866667-6.25777778 63.37422222-36.63644445 73.50044445-6.03022222 2.048-12.288 3.072-18.432 3.072zM147.456 461.59644445c-8.76088889 0-17.52177778-1.93422222-25.82755555-6.144l-21.73155556-10.8088889c-28.672-14.336-40.39111111-49.152-26.05511111-77.93777777 14.336-28.78577778 49.152-40.39111111 77.93777777-26.16888889l21.73155556 10.80888889c28.672 14.336 40.39111111 49.152 26.05511111 77.93777777-10.24 20.48-30.83377778 32.31288889-52.11022222 32.3128889zM60.75733333 669.80977778c-24.34844445 0-46.99022222-15.36-55.06844444-39.70844445-10.12622222-30.37866667 6.25777778-63.37422222 36.63644444-73.50044444l102.4-34.24711111c30.60622222-10.24 63.37422222 6.25777778 73.50044445 36.63644444 10.12622222 30.37866667-6.25777778 63.37422222-36.63644445 73.50044445l-102.4 34.24711111c-6.144 2.048-12.40177778 3.072-18.432 3.072zM243.25688889 855.49511111c-8.76088889 0-17.52177778-1.93422222-25.82755556-6.144-28.672-14.336-40.39111111-49.152-26.05511111-77.93777778l53.81688889-108.08888888c14.336-28.672 49.26577778-40.39111111 77.93777778-26.05511112 28.672 14.336 40.39111111 49.152 26.05511111 77.93777778l-53.81688889 108.08888889c-10.24 20.36622222-30.83377778 32.19911111-52.11022222 32.19911111zM565.36177778 1013.76c-24.23466667 0-46.87644445-15.36-55.06844445-39.70844445l-94.43555555-282.0551111c-10.12622222-30.37866667 6.25777778-63.37422222 36.63644444-73.50044445 30.26488889-10.12622222 63.26044445 6.25777778 73.50044445 36.63644445l94.43555555 282.0551111c10.12622222 30.37866667-6.25777778 63.37422222-36.63644444 73.50044445-6.03022222 2.048-12.288 3.072-18.432 3.072zM956.18844445 783.81511111c-8.76088889 0-17.52177778-1.93422222-25.82755556-6.144L556.94222222 591.64444445c-28.672-14.336-40.39111111-49.152-26.05511111-77.93777778 14.336-28.78577778 49.26577778-40.39111111 77.93777778-26.05511112l373.30488889 186.02666667c28.672 14.336 40.39111111 49.152 26.05511111 77.93777778-10.12622222 20.36622222-30.72 32.19911111-51.99644444 32.19911111zM567.18222222 423.82222222c-24.23466667 0-46.87644445-15.36-55.06844444-39.70844444-10.12622222-30.37866667 6.25777778-63.37422222 36.63644444-73.50044445l350.32177778-117.19111111c30.15111111-10.12622222 63.26044445 6.25777778 73.50044445 36.63644445 10.12622222 30.37866667-6.25777778 63.37422222-36.63644445 73.50044444L585.61422222 420.864c-6.03022222 2.048-12.288 2.95822222-18.432 2.95822222z" fill="#ababab" p-id="16807"></path></svg>