<?xml version="1.0" standalone="no"?><!DOCTYPE svg PUBLIC "-//W3C//DTD SVG 1.1//EN" "http://www.w3.org/Graphics/SVG/1.1/DTD/svg11.dtd"><svg t="1752931621666" class="icon" viewBox="0 0 1024 1024" version="1.1" xmlns="http://www.w3.org/2000/svg" p-id="29561" xmlns:xlink="http://www.w3.org/1999/xlink" width="200" height="200"><path d="M0 0m93.090909 0l837.818182 0q93.090909 0 93.090909 93.090909l0 837.818182q0 93.090909-93.090909 93.090909l-837.818182 0q-93.090909 0-93.090909-93.090909l0-837.818182q0-93.090909 93.090909-93.090909Z" fill="#2BA246" p-id="29562"></path><path d="M767.418182 369.617455v321.861818c0 18.664727-15.080727 33.745455-33.745455 33.745454H289.908364c-18.618182 0-33.745455-15.080727-33.745455-33.745454v-377.949091c0-18.618182 15.127273-33.722182 33.745455-33.722182h197.585454c9.844364 0 19.293091 3.863273 26.368 10.705455l29.323637 28.625454a58.88 58.88 0 0 0 41.099636 16.756364h149.410909c18.664727 0 33.745455 15.080727 33.745455 33.722182z" fill="#FFFFFF" p-id="29563"></path><path d="M628.782545 519.307636l-84.596363-58.996363a4.445091 4.445091 0 0 0-6.981818 3.700363l0.325818 30.114909a4.421818 4.421818 0 0 1-4.445091 4.51491h-142.615273a4.445091 4.445091 0 0 0-4.468363 4.44509v42.449455c0 2.443636 1.978182 4.445091 4.468363 4.445091h143.336727c2.443636 0 4.421818 1.978182 4.445091 4.421818l0.349091 30.184727a4.421818 4.421818 0 0 0 7.074909 3.490909l83.246546-61.486545a4.491636 4.491636 0 0 0-0.139637-7.284364z" fill="#0EB400" p-id="29564"></path></svg>