<?xml version="1.0" standalone="no"?><!DOCTYPE svg PUBLIC "-//W3C//DTD SVG 1.1//EN" "http://www.w3.org/Graphics/SVG/1.1/DTD/svg11.dtd"><svg t="1752931468577" class="icon" viewBox="0 0 1024 1024" version="1.1" xmlns="http://www.w3.org/2000/svg" p-id="15815" xmlns:xlink="http://www.w3.org/1999/xlink" width="200" height="200"><path d="M410.1 751.2c-5 0-10-1.3-14.6-4-9.7-5.6-14.9-15.9-13.8-26.8v-0.2l12.9-103.7c0.4-4.1-2-8-6-9.6l-0.9-0.4-0.7-0.5-97.3-66.5c-10-4.6-16.3-14.1-16.3-25-0.1-11.1 6.3-20.9 16.6-25.5l97.4-50.3 0.3-0.1c4-1.7 6.4-5.7 5.9-9.8l-14.5-121.9c-1.3-10.9 3.8-21.3 13.4-27 9.9-5.9 22-5.5 31.4 1.1l102.8 71.8c3.6 2.5 8.7 2.5 12.3-0.1l101.8-73.2c9.4-6.7 21.4-7.3 31.4-1.5 9.7 5.6 14.9 15.9 13.8 26.8l-12.9 122.1c-0.4 4.1 2 8 6 9.7l0.5 0.2 97.8 48.6c10.4 4.5 16.9 14.2 17 25.3 0.1 11.1-6.3 20.9-16.6 25.5l-97.4 50.3-0.3 0.1c-4 1.7-6.4 5.7-5.9 9.8l0.1 0.7v0.7l-3.7 121.3c1 10.6-4.1 20.7-13.5 26.3-9.9 5.9-21.8 5.5-31.3-1L541 690.7c-3.6-2.5-8.7-2.5-12.3 0.1l-0.5 0.3-0.5 0.3-101.3 54.7c-4.9 3.4-10.6 5.1-16.3 5.1z m-10.2-28.8c-0.5 5.3 3.2 8.1 4.8 9 2.9 1.7 7.5 2.4 11.6-0.5l0.5-0.3 0.5-0.3 101.3-54.7c9.8-6.7 22.9-6.8 32.7 0l84.7 53.7c4.2 2.9 8.7 2.1 11.6 0.4 1.6-1 5.3-3.8 4.7-9.2l-0.1-0.7v-0.7l3.7-121.3c-1.1-11.8 5.5-22.9 16.5-27.8l97.4-50.3 0.3-0.1c3.7-1.6 6-4.9 5.9-8.8 0-3.9-2.3-7.1-6.1-8.7l-0.5-0.2-97.8-48.6c-11.3-4.9-18.1-16.3-16.8-28.4l12.9-122.1c0.6-5.4-3.2-8.2-4.8-9.1-2.9-1.7-7.5-2.4-11.6 0.5l-101.8 73.2c-9.9 7.2-23.4 7.2-33.4 0.2l-102.8-71.8c-4.2-2.9-8.7-2.1-11.6-0.4-1.6 1-5.3 3.8-4.7 9.2l14.5 121.9c1.4 12.1-5.1 23.5-16.4 28.6l-97.4 50.3-0.3 0.1c-3.7 1.6-6 4.9-5.9 8.8 0 3.9 2.3 7.1 6 8.7l0.9 0.4 0.8 0.5 97.3 66.5c11 5 17.4 16.2 16.2 28.1v0.2l-12.8 103.7z" fill="#191919" p-id="15816"></path><path d="M536.3 865.6c-13.6 0-26.4-5.7-35.6-15.7L387.9 740.5l-144-29.2c-11.5-2.2-21.3-9.4-26.7-19.8-5.5-10.4-5.9-22.5-1.2-33.3l60-136.3L219.2 393c-5.6-12.8-5.5-27.4 0.4-40.1 5.9-12.7 16.9-22.3 30.3-26.3l137.6-41.3 101.9-101.9c17-17 44.4-18 62.6-2.4l118.7 85.8 137.1 42.9c17.4 3.3 31.9 14.3 39.9 30.2 8 15.9 8.1 34.1 0.4 50.1L804 513.3l37.8 157c4.7 12.3 3.4 25.7-3.4 36.9-6.9 11.3-18.3 18.5-31.4 19.9l-154 31.6-78.8 88.5c-8.8 11.2-21.9 17.9-36.1 18.4h-1.8zM522 188.3c-7.1 0-14.3 2.7-19.7 8.1L397.1 301.5l-142 42.6c-8.4 2.5-15.3 8.5-18.9 16.4s-3.7 17.1-0.2 25.1l59.9 136.2-63.2 143.7c-2.5 5.6-2.2 12 0.6 17.4 2.9 5.4 8 9.2 14 10.3h0.1l149.3 30.3L514 837.4c5.9 6.6 14.4 10.2 23.3 9.9 8.9-0.3 17.1-4.6 22.5-11.6l0.4-0.5 83.1-93.2 160.8-33.1h0.5c7.5-0.7 14.1-4.8 18.1-11.3s4.6-14.2 1.8-21.2l-0.2-0.6-0.2-0.6-39.2-162.9L831.2 383l0.2-0.5c5.4-10.9 5.3-23.4-0.1-34.3s-15.5-18.4-27.5-20.5l-0.6-0.1-0.5-0.2-140.4-44-122.1-88.3c-5.2-4.6-11.7-6.8-18.2-6.8z" fill="#191919" p-id="15817"></path></svg>