<?xml version="1.0" standalone="no"?><!DOCTYPE svg PUBLIC "-//W3C//DTD SVG 1.1//EN" "http://www.w3.org/Graphics/SVG/1.1/DTD/svg11.dtd"><svg t="1752931600551" class="icon" viewBox="0 0 1041 1024" version="1.1" xmlns="http://www.w3.org/2000/svg" p-id="28566" xmlns:xlink="http://www.w3.org/1999/xlink" width="203.3203125" height="200"><path d="M930.133333 253.866667H93.866667c-14.933333 0-23.466667 8.533333-23.466667 23.466666 0 14.933333 8.533333 23.466667 23.466667 23.466667h838.4c14.933333 0 23.466667-8.533333 23.466666-23.466667-2.133333-12.8-10.666667-23.466667-25.6-23.466666zM930.133333 488.533333H93.866667c-14.933333 0-23.466667 8.533333-23.466667 23.466667s8.533333 23.466667 23.466667 23.466667h838.4c14.933333 0 23.466667-8.533333 23.466666-23.466667-2.133333-14.933333-10.666667-23.466667-25.6-23.466667zM930.133333 725.333333H93.866667c-14.933333 0-23.466667 8.533333-23.466667 23.466667s8.533333 23.466667 23.466667 23.466667h838.4c14.933333 0 23.466667-8.533333 23.466666-23.466667s-10.666667-23.466667-25.6-23.466667z" p-id="28567"></path></svg>