<?xml version="1.0" standalone="no"?><!DOCTYPE svg PUBLIC "-//W3C//DTD SVG 1.1//EN" "http://www.w3.org/Graphics/SVG/1.1/DTD/svg11.dtd"><svg t="1752931531718" class="icon" viewBox="0 0 1024 1024" version="1.1" xmlns="http://www.w3.org/2000/svg" p-id="19764" xmlns:xlink="http://www.w3.org/1999/xlink" width="200" height="200"><path d="M789.333333 981.333333h-554.666666C174.933333 981.333333 128 934.4 128 874.666667v-725.333334C128 89.6 174.933333 42.666667 234.666667 42.666667h554.666666C849.066667 42.666667 896 89.6 896 149.333333v725.333334c0 59.733333-46.933333 106.666667-106.666667 106.666666zM234.666667 128c-12.8 0-21.333333 8.533333-21.333334 21.333333v725.333334c0 12.8 8.533333 21.333333 21.333334 21.333333h554.666666c12.8 0 21.333333-8.533333 21.333334-21.333333v-725.333334c0-12.8-8.533333-21.333333-21.333334-21.333333h-554.666666z" p-id="19765"></path><path d="M554.666667 810.666667h-85.333334c-25.6 0-42.666667-17.066667-42.666666-42.666667s17.066667-42.666667 42.666666-42.666667h85.333334c25.6 0 42.666667 17.066667 42.666666 42.666667s-17.066667 42.666667-42.666666 42.666667z" p-id="19766"></path></svg>